<svg xmlns="http://www.w3.org/2000/svg"  viewBox="0 0 64 64" width="64px" height="64px"><linearGradient id="UKgMnTH8jeDTtWo5r_L6Ga" x1="31.747" x2="31.747" y1="22.159" y2="48.232" gradientUnits="userSpaceOnUse"><stop offset="0" stop-color="#6dc7ff"/><stop offset="1" stop-color="#e6abff"/></linearGradient><path fill="url(#UKgMnTH8jeDTtWo5r_L6Ga)" d="M32.291,41.281c-0.261-0.276-0.528-0.48-0.781-0.669c-0.499-0.369-0.987-0.688-1.201-0.999	c-0.106-0.153-0.142-0.255-0.137-0.391c0.002-0.13,0.054-0.351,0.125-0.468c0.128-0.242,0.426-0.37,0.836-0.334	c0.396,0.041,0.795,0.249,0.917,0.532c0.012,0.03-0.002,0.469-0.002,0.469l1.197-0.005l-0.008-2.718l-1.197,0.005l0.001,0.596	c-0.218-0.11-0.445-0.197-0.678-0.245c-0.394-0.08-0.827-0.076-1.25,0.072c-0.426,0.14-0.824,0.453-1.07,0.836	c-0.245,0.395-0.365,0.772-0.378,1.242c-0.017,0.469,0.179,0.958,0.426,1.286c0.511,0.664,1.081,0.977,1.541,1.322	c0.472,0.322,0.836,0.663,0.891,0.911c0.032,0.122,0.027,0.288-0.035,0.466c-0.061,0.165-0.138,0.259-0.236,0.317	c-0.184,0.125-0.619,0.078-0.884-0.162c-0.268-0.236-0.353-0.528-0.236-0.9l-1.276-0.435c-0.13,0.382-0.185,0.837-0.07,1.274	c0.104,0.439,0.363,0.824,0.681,1.104c0.628,0.545,1.58,0.81,2.472,0.347c0.433-0.236,0.734-0.653,0.879-1.051	c0.142-0.383,0.21-0.84,0.103-1.305C32.809,41.92,32.549,41.549,32.291,41.281z M37.106,44.337c-0.261-0.276-0.528-0.48-0.781-0.669	c-0.499-0.369-0.987-0.688-1.201-0.999c-0.106-0.153-0.142-0.255-0.137-0.391c0.002-0.13,0.054-0.351,0.125-0.468	c0.128-0.242,0.426-0.37,0.836-0.334c0.396,0.041,0.795,0.249,0.917,0.532c0.012,0.03-0.002,0.469-0.002,0.469l1.197-0.005	l-0.008-2.718l-1.195,0.005l0.001,0.596c-0.218-0.11-0.445-0.197-0.678-0.245c-0.394-0.08-0.827-0.076-1.25,0.072	c-0.426,0.14-0.824,0.453-1.07,0.836c-0.245,0.395-0.365,0.772-0.378,1.242c-0.017,0.469,0.179,0.958,0.426,1.286	c0.511,0.664,1.081,0.977,1.541,1.322c0.472,0.322,0.836,0.663,0.891,0.911c0.032,0.122,0.027,0.288-0.035,0.466	c-0.061,0.165-0.138,0.259-0.236,0.317c-0.184,0.125-0.619,0.078-0.884-0.162c-0.268-0.236-0.353-0.528-0.236-0.9l-1.278-0.438	c-0.13,0.382-0.185,0.837-0.07,1.274c0.104,0.439,0.363,0.824,0.681,1.104c0.628,0.545,1.58,0.81,2.472,0.347	c0.433-0.236,0.734-0.653,0.879-1.051c0.142-0.383,0.21-0.84,0.103-1.305C37.624,44.976,37.364,44.604,37.106,44.337z M20.249,39.901c-0.2-0.653-0.731-1.135-1.329-1.321c-0.298-0.103-0.617-0.117-0.917-0.082c-0.285,0.023-0.637,0.171-0.803,0.258	c-0.109,0.056-0.216,0.112-0.322,0.171l-0.021-0.589l-2.756,0.116l0.05,1.195l1.044-0.044l0.169,4.687l-0.741,0.019l0.05,1.195	l3.87-0.225l-0.044-1.069l-1.426,0.036l-0.14-3.832c0.218-0.153,0.527-0.309,0.83-0.435c0.209-0.086,0.252-0.094,0.383-0.101	c0.11,0,0.218,0.008,0.309,0.054c0.188,0.078,0.319,0.24,0.344,0.394c0.019,0.076,0.011,0.153-0.017,0.235	c-0.007,0.041-0.035,0.085-0.054,0.13l-0.137,0.26l1.433,0.705l0.134-0.301c0.058-0.148,0.116-0.293,0.143-0.459	C20.365,40.575,20.357,40.221,20.249,39.901z M29.503,26.28c0.676,0,1.225-0.549,1.225-1.225c0-0.676-0.549-1.225-1.225-1.225	c-0.676,0-1.225,0.549-1.225,1.225C28.277,25.732,28.826,26.28,29.503,26.28z M30.729,32.376v-3.993v-0.372v-0.966l-3.003,0.052	v1.285h1.416v3.993h-1.113v1.415h3.692v-1.415h-0.993V32.376z M40.072,36.586c0.676,0,1.225-0.549,1.225-1.225	s-0.549-1.225-1.225-1.225c-0.676,0-1.225,0.549-1.225,1.225C38.846,36.037,39.394,36.586,40.072,36.586z M41.297,42.681v-3.992	v-0.372V37.35l-3.002,0.052v1.285h1.416v3.992h-1.113v1.415h3.692V42.68h-0.994V42.681z M24.353,35.625	c-1.974,0-3.581,1.632-3.581,3.649c0,2.009,1.607,3.641,3.581,3.641s3.573-1.632,3.573-3.641	C27.926,37.257,26.328,35.625,24.353,35.625z M24.353,41.395c-1.059,0-1.923-0.948-1.923-2.12c0-1.17,0.864-2.12,1.923-2.12	c1.059,0,1.915,0.948,1.915,2.12S25.413,41.395,24.353,41.395z M15.089,35.693l-0.487,0.752l-1.018,1.564	c-0.342-0.462-0.803-0.837-1.359-1.051c-0.103-0.043-0.205-0.076-0.316-0.111c-1.778-0.496-3.666,0.684-4.214,2.641	c-0.538,1.958,0.462,3.94,2.239,4.436c1.018,0.282,2.082,0.058,2.928-0.537l0.645,1.622c-0.812,0.53-1.761,0.829-2.752,0.829	c-0.445,0-0.88-0.06-1.308-0.179c-2.726-0.761-4.53-3.163-3.563-6.641c0.667-2.401,2.855-4.076,5.197-4.076	c0.445,0,0.88,0.06,1.308,0.171c0.291,0.076,0.564,0.188,0.829,0.316l0.435-0.667L15.089,35.693z M49.45,31.46	c0.047-0.517,0.092-1.032,0.146-1.547l0.125-1.231c0.019-0.2,0.044-0.398,0.057-0.696c-0.001-0.27-0.018-0.544-0.081-0.815	c-0.235-1.123-1.241-1.94-2.274-2.147c-0.537-0.113-1.059-0.074-1.545,0.048c-0.494,0.129-0.948,0.379-1.322,0.68l0.688,0.97	c0.297-0.178,0.605-0.283,0.917-0.327c0.319-0.047,0.641-0.027,0.903,0.066c0.571,0.166,0.947,0.625,1.123,1.111	c0.045,0.125,0.073,0.265,0.074,0.406c0.001,0.05-0.005,0.123-0.012,0.2c-0.487-0.391-1.132-0.636-1.846-0.636	c-1.504,0-2.726,1.059-2.726,2.376c0,1.316,1.222,2.385,2.726,2.385c0.462,0,0.889-0.11,1.271-0.288l-0.058,0.655l2.442,0.218	l0.122-1.362L49.45,31.46z M46.712,31.182c-0.752,0-1.291-0.53-1.291-1.18s0.538-1.17,1.291-1.17c0.53,0,1.059,0.248,1.291,0.624	l-0.005,0.511c-0.033,0.236-0.072,0.472-0.107,0.709C47.634,30.974,47.173,31.182,46.712,31.182z M55.305,22.678l-2.71-0.519	l-0.258,1.343l1.117,0.214l-1.594,8.637l-0.738-0.13l-0.236,1.347l3.202,0.565l0.236-1.347l-0.864-0.152L55.305,22.678z M42.122,31.805l0.116-3.976c0.033-1.15-0.858-2.118-2.008-2.177l0,0c-1.316,0-1.82,0.797-1.82,0.797s-0.394-1.047-1.62-1.047	c-1.226,0-1.62,0.74-1.62,0.74l0.013-1.087l-2.817-0.045v1.024h0.829v5.32h-0.953v1.403h2.74v-1.094l0.116-3.824	c0.014-0.489,0.415-0.878,0.905-0.878l0,0c0.513,0,0.923,0.426,0.905,0.939l-0.193,5.372h2.953v-0.95l-1.094,0.005l0.125-4.162	c0.017-0.537,0.457-0.964,0.994-0.964l0,0c0.567,0,1.019,0.472,0.993,1.039l-0.224,4.94h2.516v-1.373L42.122,31.805z M19.176,26.277	l-0.153-1.2l2.682-0.365l0.094,1.106c0,0,0.777-1.164,2.376-1.164l0,0c1.121,0,2.066,0.836,2.2,1.951l0.446,3.696l0.764-0.058	l0.141,1.364l-2.398,0.266l-0.514-4.544c-0.076-0.674-0.672-1.168-1.349-1.118l0,0c-1.488,0.199-1.355,1.628-1.355,1.628	l0.629,4.191l-2.493,0.4l-0.149-1.063l0.891-0.125l-0.749-5.263L19.176,26.277z M42.586,40.463l0.075-1.041l2.64,0.169l-0.066,1.106	c0,0,0.991-0.988,2.559-0.67l0,0c1.099,0.222,1.859,1.229,1.77,2.347l-0.293,3.711l0.761,0.094l-0.131,1.365l-2.403-0.215	l0.396-4.556c0.058-0.676-0.427-1.278-1.101-1.362l0,0c-1.497-0.1-1.651,1.329-1.651,1.329l-0.212,4.233l-2.523-0.101l0.063-1.071	l0.898,0.052l0.308-5.308L42.586,40.463z M18.967,31.529l-0.746,0.047l-3.636-9.155l-3.906,0.382l0.119,1.448l1.531-0.125	l-1.342,8.334L9.88,32.595l0.192,1.569l0.008-0.001v0.001l2.256-0.265l0.598-3.82l2.428-0.205l0.765,1.831l-1.633,0.101l0.122,1.59	l4.462-0.412L18.967,31.529z M13.225,28.668l0.513-3.247l1.248,3.128L13.225,28.668z M57.857,45.145	c-0.013-0.123-0.043-0.267-0.063-0.371l-0.062-0.267l-0.987-4.27c-0.231-1.026-0.482-2.046-0.732-3.067l0.688-0.167l-0.28-1.204	l-2.368,0.571L54.3,37.43c-0.606-0.254-1.291-0.335-1.982-0.183c-1.786,0.384-2.914,2.153-2.521,3.932	c0.384,1.786,2.153,2.914,3.932,2.53c0.741-0.163,1.359-0.57,1.812-1.107l0.56,2.292l0.064,0.266l0.032,0.168	c0.01,0.104,0.012,0.21-0.006,0.313c-0.032,0.206-0.128,0.407-0.266,0.568c-0.27,0.328-0.761,0.468-1.111,0.356	c-0.185-0.056-0.357-0.171-0.477-0.327c-0.243-0.353-0.21-0.577-0.07-0.674c0.155-0.106,0.298-0.019,0.377,0.092l0.917-0.631	c-0.311-0.56-0.917-0.905-1.532-0.764c-0.599,0.103-1.179,0.565-1.328,1.24c-0.13,0.699,0.08,1.174,0.353,1.628	c0.29,0.45,0.74,0.784,1.244,0.965c1.047,0.361,2.181-0.021,2.864-0.793c0.342-0.385,0.58-0.868,0.668-1.381	C57.878,45.667,57.881,45.404,57.857,45.145z M53.447,42.172c-1.077,0-1.94-0.837-1.94-1.872c0-1.026,0.864-1.863,1.94-1.863	c0.333,0,0.649,0.086,0.923,0.23h0.008l0.667,2.684C54.703,41.848,54.113,42.172,53.447,42.172z"/><linearGradient id="UKgMnTH8jeDTtWo5r_L6Gb" x1="32" x2="32" y1="13" y2="23" gradientUnits="userSpaceOnUse"><stop offset="0" stop-color="#6dc7ff"/><stop offset="1" stop-color="#e6abff"/></linearGradient><circle cx="32" cy="18" r="5" fill="url(#UKgMnTH8jeDTtWo5r_L6Gb)"/><linearGradient id="UKgMnTH8jeDTtWo5r_L6Gc" x1="32.235" x2="32.235" y1="7.999" y2="53.227" gradientUnits="userSpaceOnUse"><stop offset="0" stop-color="#1a6dff"/><stop offset="1" stop-color="#c822ff"/></linearGradient><path fill="url(#UKgMnTH8jeDTtWo5r_L6Gc)" d="M32.75,17v1c0,0.199-0.079,0.39-0.22,0.53l-0.825,0.825c0.146,0.19,0.21,0.424,0.168,0.633	c-0.092,0.458-0.825,0.697-1.376,0.583s-1.329,0.219-1.826,0.533c0.389-0.501,0.483-1.424,0.472-1.758	c-0.012-0.334-0.297-1.196,0.668-1.379c0.426-0.08,0.669,0.111,0.814,0.347l0.624-0.624V17c0-0.414,0.336-0.75,0.75-0.75	S32.75,16.586,32.75,17z M32,21.25c-0.414,0-0.75,0.336-0.75,0.75v0.924C31.496,22.962,31.743,23,32,23s0.504-0.038,0.75-0.076V22	C32.75,21.586,32.414,21.25,32,21.25z M34.298,20.298c-0.293,0.293-0.293,0.768,0,1.061l0.656,0.656	c0.405-0.299,0.762-0.655,1.061-1.061l-0.656-0.656C35.065,20.005,34.591,20.005,34.298,20.298z M61.632,40.474h-1.358l0.753,2.634	c0.598,2.096,1.501,5.262-0.235,7.505c-1.02,1.315-2.957,2.614-5.272,2.614c-1.064,0.001-2.21-0.274-3.381-0.949l-0.431,0.43	c-0.208,0.209-0.502,0.318-0.79,0.289l-11.775-0.98c-1.999,0.71-6.004,1.07-8.65-2.05c-1.211-0.154-3.034-0.86-4.05-2.743	c-1.073,0.278-2.882,0.559-4.441-0.122V49c0,0.518-0.395,0.949-0.909,0.996l-11,1c-0.003,0-0.006,0-0.008,0	c-4.159,0-7.292-3.276-8.071-8.344C1.135,36.951,3.796,34.328,5,33.454V32c0-0.379,0.214-0.725,0.553-0.895l1.63-0.814L7.612,29H7	c-0.269,0-0.525-0.108-0.714-0.3C6.099,28.509,5.995,28.25,6,27.981l0.034-1.823H4.368c-0.379,0-0.726-0.214-0.895-0.554	c-0.17-0.339-0.133-0.744,0.096-1.048l4.632-6.158C8.39,18.147,8.686,18,9,18h13l-0.001-0.986V17.01	c0-0.002,0.001-0.003,0.001-0.005v-0.001V17c0-0.553,0.447-1,1-1h2.295c0.137-0.459,0.335-0.889,0.559-1.304l-1.639-1.634	c-0.297-0.296-0.366-0.731-0.213-1.095c0.031-0.075,0.086-0.137,0.135-0.203c0.028-0.038,0.042-0.082,0.077-0.116l0.001-0.001	c0.001-0.001,0.001-0.002,0.002-0.003l0.001-0.001c0.001-0.001,0.001-0.002,0.002-0.003l0.001-0.001	c0.001-0.001,0.001-0.002,0.002-0.003l0.936-0.936l0.459-0.46l0.009-0.009l0.003-0.003c0.001-0.001,0.002-0.001,0.003-0.002	l0.005-0.005c0.391-0.391,1.023-0.391,1.414,0l1.625,1.625c0.414-0.225,0.857-0.399,1.315-0.538l-0.003-2.307	c0-0.265,0.104-0.52,0.292-0.707c0.188-0.188,0.441-0.294,0.707-0.294h0.005C30.993,8.001,30.994,8,30.996,8H31h0.986l1-0.001h0.001	h0.003h0.001C32.993,7.999,32.994,8,32.996,8H33c0.553,0,1,0.447,1,1v2.304c0.459,0.138,0.904,0.311,1.319,0.535l1.62-1.624	c0.296-0.296,0.73-0.365,1.094-0.214c0.085,0.035,0.156,0.094,0.229,0.151c0.029,0.023,0.064,0.033,0.091,0.06l0.001,0.001	c0.001,0.001,0.002,0.001,0.003,0.002l0.001,0.001c0.001,0.001,0.002,0.001,0.003,0.002l0.001,0.001	c0.001,0.001,0.002,0.001,0.003,0.002l0.936,0.936l0.46,0.459l0.009,0.009l0.003,0.003c0.001,0.001,0.001,0.002,0.002,0.003	l0.005,0.005c0.391,0.391,0.391,1.023,0,1.414l-1.622,1.622c0.225,0.416,0.407,0.857,0.546,1.318l2.295-0.003h0.001	c0.265,0,0.519,0.105,0.706,0.292c0.188,0.188,0.294,0.441,0.294,0.707v0.005c0,0.002,0.001,0.003,0.001,0.005V17v0.986V18h15	c0.334,0,0.646,0.167,0.832,0.445l4,6c0.204,0.307,0.224,0.701,0.05,1.026S61.369,26,61,26h-2.153l-0.666,4H59	c0.542,0,0.985,0.432,1,0.974L60.026,32h0.815c0.506,0,0.932,0.377,0.992,0.879l0.79,6.474c0.035,0.284-0.054,0.569-0.243,0.784	C62.19,40.351,61.918,40.474,61.632,40.474z M60.502,38.474L59.956,34h-0.903c-0.542,0-0.985-0.432-1-0.974L58.026,32H57	c-0.294,0-0.573-0.129-0.763-0.354c-0.19-0.225-0.272-0.521-0.224-0.811l1-6C57.094,24.354,57.511,24,58,24h1.132l-2.667-4H41	h-4.431c0.14-0.319,0.259-0.65,0.33-1l0.045-0.25H36c-0.414,0-0.75-0.336-0.75-0.75s0.336-0.75,0.75-0.75h0.937	c-0.127-0.815-0.453-1.565-0.924-2.203l-0.655,0.655c-0.146,0.146-0.338,0.22-0.53,0.22s-0.384-0.073-0.53-0.22	c-0.293-0.293-0.293-0.768,0-1.061l0.655-0.655c-0.638-0.471-1.387-0.796-2.203-0.924V14c0,0.414-0.336,0.75-0.75,0.75	s-0.75-0.336-0.75-0.75v-0.937c-0.814,0.129-1.56,0.457-2.196,0.93l0.648,0.648c0.293,0.293,0.293,0.768,0,1.061	c-0.146,0.146-0.338,0.22-0.53,0.22s-0.384-0.073-0.53-0.22l-0.645-0.645c-0.465,0.637-0.797,1.379-0.921,2.193H28	c0.414,0,0.75,0.336,0.75,0.75s-0.336,0.75-0.75,0.75h-0.944L27.101,19c0.071,0.35,0.19,0.681,0.33,1H26l-2.998,0.013h-0.001	c-0.022,0-0.042-0.011-0.064-0.013H9.499l-3.127,4.158h0.681c0.269,0,0.525,0.108,0.714,0.3c0.188,0.191,0.291,0.45,0.286,0.719	L8.019,27H9c0.321,0,0.623,0.154,0.812,0.415c0.188,0.261,0.239,0.597,0.137,0.901l-1,3c-0.083,0.251-0.264,0.459-0.501,0.578	L7,32.618V34c0,0.379-0.214,0.725-0.553,0.895c-0.128,0.067-3.326,1.816-2.459,7.453C4.461,45.417,6.318,49,10,49l10-0.913V45	c0-0.44,0.288-0.829,0.71-0.957c0.421-0.13,0.878,0.035,1.122,0.402c1.313,1.973,4.763,0.639,4.799,0.625	c0.255-0.099,0.542-0.092,0.791,0.024c0.249,0.115,0.44,0.328,0.526,0.589c0.752,2.255,2.965,2.315,3.06,2.316	c0.309,0.005,0.606,0.152,0.792,0.4c2.492,3.321,6.656,1.739,6.832,1.67c0.143-0.056,0.305-0.081,0.451-0.066l11.538,0.961	l0.672-0.672c0.345-0.346,0.891-0.391,1.288-0.106c3.061,2.183,5.674,0.434,6.628-0.799c1.032-1.332,0.539-3.472-0.106-5.731	l-1.117-3.908c-0.086-0.302-0.025-0.626,0.163-0.877c0.189-0.25,0.485-0.397,0.799-0.397H60.502z"/></svg>