<svg xmlns="http://www.w3.org/2000/svg"  viewBox="0 0 100 100" width="100px" height="100px"><path fill="#c7ede6" d="M87.215,56.71C88.35,54.555,89,52.105,89,49.5c0-6.621-4.159-12.257-10.001-14.478	C78.999,35.015,79,35.008,79,35c0-11.598-9.402-21-21-21c-9.784,0-17.981,6.701-20.313,15.757C36.211,29.272,34.638,29,33,29	c-5.127,0-10.564,3.25-11.5,7.5c-0.513,2.328-3.101,3.265-3.39,5.752C12.906,43.353,9,47.969,9,53.5C9,59.851,14.149,65,20.5,65	c0.177,0,0.352-0.012,0.526-0.022C21.022,65.153,21,65.324,21,65.5C21,76.822,30.178,86,41.5,86c6.437,0,12.175-2.972,15.934-7.614	C59.612,80.611,62.64,82,66,82c4.65,0,8.674-2.65,10.666-6.518C77.718,75.817,78.837,76,80,76c6.075,0,11-4.925,11-11	C91,61.689,89.53,58.727,87.215,56.71z"/><path fill="#fdfcef" d="M84.5,40.5V41h3v-0.5c0,0,4.242,0,5.5,0c2.485,0,4.5-2.015,4.5-4.5c0-2.333-1.782-4.229-4.055-4.455	C93.467,31.364,93.5,31.187,93.5,31c0-2.485-2.015-4.5-4.5-4.5c-1.438,0-2.703,0.686-3.527,1.736C85.333,25.6,83.171,23.5,80.5,23.5	c-2.761,0-5,2.239-5,5c0,0.446,0.077,0.87,0.187,1.282C75.045,29.005,74.086,28.5,73,28.5c-1.781,0-3.234,1.335-3.455,3.055	C69.364,31.533,69.187,31.5,69,31.5c-2.485,0-4.5,2.015-4.5,4.5s2.015,4.5,4.5,4.5s9.5,0,9.5,0H84.5z"/><path fill="#472b29" d="M80.5,23c-3.033,0-5.5,2.467-5.5,5.5c0,0.016,0,0.031,0,0.047C74.398,28.192,73.71,28,73,28	c-1.831,0-3.411,1.261-3.858,3.005C69.095,31.002,69.048,31,69,31c-2.757,0-5,2.243-5,5s2.243,5,5,5h15.5c0.276,0,0.5-0.224,0.5-0.5	S84.776,40,84.5,40H69c-2.206,0-4-1.794-4-4s1.794-4,4-4c0.117,0,0.23,0.017,0.343,0.032l0.141,0.019	c0.021,0.003,0.041,0.004,0.062,0.004c0.246,0,0.462-0.185,0.495-0.437C70.232,30.125,71.504,29,73,29	c0.885,0,1.723,0.401,2.301,1.1c0.098,0.118,0.241,0.182,0.386,0.182c0.078,0,0.156-0.018,0.228-0.056	c0.209-0.107,0.314-0.346,0.254-0.573C76.054,29.218,76,28.852,76,28.5c0-2.481,2.019-4.5,4.5-4.5c2.381,0,4.347,1.872,4.474,4.263	c0.011,0.208,0.15,0.387,0.349,0.45c0.05,0.016,0.101,0.024,0.152,0.024c0.15,0,0.296-0.069,0.392-0.192	C86.638,27.563,87.779,27,89,27c2.206,0,4,1.794,4,4c0,0.117-0.017,0.23-0.032,0.343l-0.019,0.141	c-0.016,0.134,0.022,0.268,0.106,0.373s0.207,0.172,0.34,0.185C95.451,32.247,97,33.949,97,36c0,2.206-1.794,4-4,4h-5.5	c-0.276,0-0.5,0.224-0.5,0.5s0.224,0.5,0.5,0.5H93c2.757,0,5-2.243,5-5c0-2.397-1.689-4.413-4.003-4.877	C93.999,31.082,94,31.041,94,31c0-2.757-2.243-5-5-5c-1.176,0-2.293,0.416-3.183,1.164C85.219,24.76,83.055,23,80.5,23L80.5,23z"/><path fill="#472b29" d="M79,30c-1.403,0-2.609,0.999-2.913,2.341C75.72,32.119,75.301,32,74.875,32	c-1.202,0-2.198,0.897-2.353,2.068C72.319,34.022,72.126,34,71.938,34c-1.529,0-2.811,1.2-2.918,2.732	C69.01,36.87,69.114,36.99,69.251,37c0.006,0,0.012,0,0.018,0c0.13,0,0.24-0.101,0.249-0.232c0.089-1.271,1.151-2.268,2.419-2.268	c0.229,0,0.47,0.042,0.738,0.127c0.022,0.007,0.045,0.01,0.067,0.01c0.055,0,0.11-0.02,0.156-0.054	C72.962,34.537,73,34.455,73,34.375c0-1.034,0.841-1.875,1.875-1.875c0.447,0,0.885,0.168,1.231,0.473	c0.047,0.041,0.106,0.063,0.165,0.063c0.032,0,0.063-0.006,0.093-0.019c0.088-0.035,0.148-0.117,0.155-0.212	C76.623,31.512,77.712,30.5,79,30.5c0.208,0,0.425,0.034,0.682,0.107c0.023,0.007,0.047,0.01,0.07,0.01	c0.109,0,0.207-0.073,0.239-0.182c0.038-0.133-0.039-0.271-0.172-0.309C79.517,30.04,79.256,30,79,30L79,30z"/><path fill="#472b29" d="M92.883,31.5c-1.326,0-2.508,0.897-2.874,2.182c-0.038,0.133,0.039,0.271,0.172,0.309	C90.205,33.997,90.228,34,90.25,34c0.109,0,0.209-0.072,0.24-0.182C90.795,32.748,91.779,32,92.883,32	c0.117,0,0.23,0.014,0.342,0.029c0.012,0.002,0.023,0.003,0.035,0.003c0.121,0,0.229-0.092,0.246-0.217	c0.019-0.137-0.077-0.263-0.214-0.281C93.158,31.516,93.022,31.5,92.883,31.5L92.883,31.5z"/><path fill="#fff" d="M10.339,54.206h-9c-0.276,0-0.5-0.224-0.5-0.5s0.224-0.5,0.5-0.5h9c0.276,0,0.5,0.224,0.5,0.5	S10.616,54.206,10.339,54.206z"/><path fill="#fff" d="M13.339,54.206h-1c-0.276,0-0.5-0.224-0.5-0.5s0.224-0.5,0.5-0.5h1c0.276,0,0.5,0.224,0.5,0.5	S13.616,54.206,13.339,54.206z"/><path fill="#fff" d="M18.33,56.206H9.339c-0.276,0-0.5-0.224-0.5-0.5s0.224-0.5,0.5-0.5h8.991c0.276,0,0.5,0.224,0.5,0.5	S18.606,56.206,18.33,56.206z"/><path fill="#fff" d="M7.339,56.206h-1c-0.276,0-0.5-0.224-0.5-0.5s0.224-0.5,0.5-0.5h1c0.276,0,0.5,0.224,0.5,0.5	S7.616,56.206,7.339,56.206z"/><path fill="#fff" d="M4.339,56.206h-2c-0.276,0-0.5-0.224-0.5-0.5s0.224-0.5,0.5-0.5h2c0.276,0,0.5,0.224,0.5,0.5	S4.616,56.206,4.339,56.206z"/><path fill="#fff" d="M11.339,58.206h-2c-0.276,0-0.5-0.224-0.5-0.5s0.224-0.5,0.5-0.5h2c0.276,0,0.5,0.224,0.5,0.5	S11.615,58.206,11.339,58.206z"/><path fill="#fff" d="M13.339,49.206c-0.177,0-0.823,0-1,0c-0.276,0-0.5,0.224-0.5,0.5s0.224,0.5,0.5,0.5	c0.177,0,0.823,0,1,0c0.276,0,0.5-0.224,0.5-0.5S13.616,49.206,13.339,49.206z"/><path fill="#fff" d="M13.339,51.206c-0.177,0-4.823,0-5,0c-0.276,0-0.5,0.224-0.5,0.5s0.224,0.5,0.5,0.5	c0.177,0,4.823,0,5,0c0.276,0,0.5-0.224,0.5-0.5S13.616,51.206,13.339,51.206z"/><path fill="#fff" d="M18.339,53.206c-0.177,0-2.823,0-3,0c-0.276,0-0.5,0.224-0.5,0.5s0.224,0.5,0.5,0.5	c0.177,0,2.823,0,3,0c0.276,0,0.5-0.224,0.5-0.5S18.616,53.206,18.339,53.206z"/><path fill="#fff" d="M60.835,21.321h-10c-0.276,0-0.5-0.224-0.5-0.5s0.224-0.5,0.5-0.5h10c0.276,0,0.5,0.224,0.5,0.5	S61.111,21.321,60.835,21.321z"/><path fill="#fff" d="M64.835,21.321h-2c-0.276,0-0.5-0.224-0.5-0.5s0.224-0.5,0.5-0.5h2c0.276,0,0.5,0.224,0.5,0.5	S65.111,21.321,64.835,21.321z"/><path fill="#fff" d="M69.835,23.321h-10c-0.276,0-0.5-0.224-0.5-0.5s0.224-0.5,0.5-0.5h10c0.276,0,0.5,0.224,0.5,0.5	S70.112,23.321,69.835,23.321z"/><path fill="#fff" d="M57.835,23.321h-1c-0.276,0-0.5-0.224-0.5-0.5s0.224-0.5,0.5-0.5h1c0.276,0,0.5,0.224,0.5,0.5	S58.111,23.321,57.835,23.321z"/><path fill="#fff" d="M54.805,23.321h-1.97c-0.276,0-0.5-0.224-0.5-0.5s0.224-0.5,0.5-0.5h1.97c0.276,0,0.5,0.224,0.5,0.5	S55.081,23.321,54.805,23.321z"/><path fill="#fff" d="M63.835,19.321h-5c-0.276,0-0.5-0.224-0.5-0.5s0.224-0.5,0.5-0.5h5c0.276,0,0.5,0.224,0.5,0.5	S64.112,19.321,63.835,19.321z"/><path fill="#fff" d="M60.835,25.321h-2c-0.276,0-0.5-0.224-0.5-0.5s0.224-0.5,0.5-0.5h2c0.276,0,0.5,0.224,0.5,0.5	S61.111,25.321,60.835,25.321z"/><path fill="#fdfcef" d="M26.5,80.5c0,0,1.567,0,3.5,0s3.5-1.567,3.5-3.5c0-1.781-1.335-3.234-3.055-3.455	C30.473,73.366,30.5,73.187,30.5,73c0-1.933-1.567-3.5-3.5-3.5c-1.032,0-1.95,0.455-2.59,1.165c-0.384-1.808-1.987-3.165-3.91-3.165	c-2.209,0-4,1.791-4,4c0,0.191,0.03,0.374,0.056,0.558C16.128,71.714,15.592,71.5,15,71.5c-1.228,0-2.245,0.887-2.455,2.055	C12.366,73.527,12.187,73.5,12,73.5c-1.933,0-3.5,1.567-3.5,3.5s1.567,3.5,3.5,3.5s7.5,0,7.5,0V81h7V80.5z"/><path fill="#472b29" d="M28.25,76C28.112,76,28,75.888,28,75.75c0-1.223,0.995-2.218,2.218-2.218	c0.034,0.009,0.737-0.001,1.244,0.136c0.133,0.036,0.212,0.173,0.176,0.306c-0.036,0.134-0.173,0.213-0.306,0.176	c-0.444-0.12-1.1-0.12-1.113-0.118c-0.948,0-1.719,0.771-1.719,1.718C28.5,75.888,28.388,76,28.25,76z"/><circle cx="21.5" cy="80.5" r=".5" fill="#472b29"/><path fill="#472b29" d="M30,81h-3.5c-0.276,0-0.5-0.224-0.5-0.5s0.224-0.5,0.5-0.5H30c1.654,0,3-1.346,3-3	c0-1.496-1.125-2.768-2.618-2.959c-0.134-0.018-0.255-0.088-0.336-0.196s-0.115-0.244-0.094-0.377C29.975,73.314,30,73.16,30,73	c0-1.654-1.346-3-3-3c-0.85,0-1.638,0.355-2.219,1c-0.125,0.139-0.321,0.198-0.5,0.148c-0.182-0.049-0.321-0.195-0.36-0.379	C23.58,69.165,22.141,68,20.5,68c-1.93,0-3.5,1.57-3.5,3.5c0,0.143,0.021,0.28,0.041,0.418c0.029,0.203-0.063,0.438-0.242,0.54	s-0.396,0.118-0.556-0.01C15.878,72.155,15.449,72,15,72c-0.966,0-1.792,0.691-1.963,1.644c-0.048,0.267-0.296,0.446-0.569,0.405	C12.314,74.025,12.16,74,12,74c-1.654,0-3,1.346-3,3s1.346,3,3,3h7.5c0.276,0,0.5,0.224,0.5,0.5S19.776,81,19.5,81H12	c-2.206,0-4-1.794-4-4s1.794-4,4-4c0.059,0,0.116,0.002,0.174,0.006C12.588,71.82,13.711,71,15,71c0.349,0,0.689,0.061,1.011,0.18	C16.176,68.847,18.126,67,20.5,67c1.831,0,3.466,1.127,4.153,2.774C25.333,69.276,26.155,69,27,69c2.206,0,4,1.794,4,4	c0,0.048-0.001,0.095-0.004,0.142C32.739,73.59,34,75.169,34,77C34,79.206,32.206,81,30,81z"/><path fill="#472b29" d="M24.5,80c-0.159,0-0.841,0-1,0c-0.276,0-0.5,0.224-0.5,0.5s0.224,0.5,0.5,0.5c0.159,0,0.841,0,1,0	c0.276,0,0.5-0.224,0.5-0.5S24.776,80,24.5,80z"/><path fill="#c07853" d="M80.5,52.5h-2v-3h-1l1-7h3l-3-6l-20-0.952V34.5h-2.181c-0.162-0.684-0.432-1.325-0.791-1.907	l1.543-1.543l-2.121-2.121l-1.543,1.543c-0.582-0.359-1.222-0.629-1.907-0.791V27.5h-3v2.181c-0.711,0.152-1.325,0.432-1.907,0.791	l-1.543-1.543l-2.121,2.121l1.543,1.543c-0.39,0.531-0.629,1.222-0.791,1.907H41.5v1.048l-20,0.952l-4,6h3v3h1.626l-0.626,4h-2	v3.518c-2.411,1.615-4,4.362-4,7.482c0,4.971,4.029,10,9,10c4,0,11-1,11-1v-4.51c1.254,0.944,2.809,1.51,4.5,1.51	c0.858,0,1.678-0.151,2.446-0.416C43.435,67.542,45.105,68.5,47,68.5c0.238,0,0.47-0.02,0.7-0.049	c0.637,2.333,2.766,4.049,5.3,4.049c1.566,0,2.976-0.658,3.978-1.708L71.5,72.5l0.374-1.871C72.882,71.774,74.355,72.5,76,72.5	c3.038,0,5.5-2.462,5.5-5.5c0-0.17-0.01-0.337-0.025-0.503l0.002,0.003l-0.003-0.021c-0.01-0.109-0.028-0.215-0.045-0.323L80.5,59.5	h2L80.5,52.5z"/><circle cx="50" cy="35.5" r="3.5" fill="#fdfcef"/><path fill="#fbcd59" d="M49.218,61.917c-0.306-0.323-0.619-0.561-0.914-0.783c-0.583-0.431-1.154-0.806-1.405-1.168	c-0.124-0.179-0.166-0.299-0.161-0.458c0.003-0.152,0.063-0.411,0.147-0.547c0.15-0.283,0.498-0.433,0.979-0.391	c0.463,0.048,0.929,0.292,1.074,0.622c0.014,0.035-0.003,0.549-0.003,0.549l1.4-0.005l-0.01-3.18l-1.4,0.005l0.002,0.698	c-0.256-0.128-0.521-0.231-0.793-0.286c-0.46-0.093-0.967-0.089-1.463,0.084c-0.498,0.163-0.965,0.53-1.252,0.979	c-0.286,0.462-0.427,0.903-0.442,1.453c-0.02,0.548,0.209,1.121,0.499,1.505c0.597,0.778,1.264,1.143,1.803,1.546	c0.553,0.377,0.979,0.776,1.042,1.066c0.037,0.143,0.032,0.336-0.041,0.546c-0.071,0.192-0.162,0.303-0.276,0.371	c-0.215,0.147-0.724,0.091-1.034-0.19c-0.314-0.276-0.413-0.618-0.277-1.053L45.2,62.77c-0.152,0.447-0.217,0.98-0.082,1.491	c0.122,0.513,0.424,0.964,0.797,1.291c0.734,0.638,1.848,0.948,2.892,0.406c0.507-0.276,0.859-0.763,1.029-1.23	c0.166-0.448,0.246-0.983,0.12-1.527C49.824,62.664,49.519,62.23,49.218,61.917z"/><path fill="#fbcd59" d="M54.851,65.492c-0.306-0.323-0.619-0.561-0.914-0.783c-0.583-0.431-1.154-0.806-1.405-1.168	c-0.124-0.179-0.166-0.299-0.161-0.458c0.003-0.152,0.063-0.411,0.147-0.547c0.15-0.283,0.498-0.433,0.979-0.391	c0.463,0.048,0.929,0.292,1.074,0.622c0.014,0.035-0.003,0.549-0.003,0.549l1.4-0.005l-0.01-3.18l-1.4,0.005l0.002,0.698	c-0.256-0.128-0.521-0.231-0.793-0.286c-0.46-0.093-0.967-0.089-1.463,0.084c-0.498,0.163-0.965,0.53-1.252,0.979	c-0.286,0.462-0.427,0.903-0.442,1.453c-0.02,0.548,0.209,1.121,0.499,1.505c0.597,0.778,1.264,1.143,1.803,1.546	c0.553,0.377,0.979,0.776,1.042,1.066c0.037,0.143,0.032,0.336-0.041,0.546c-0.071,0.192-0.162,0.303-0.276,0.371	c-0.215,0.147-0.724,0.091-1.034-0.19c-0.314-0.276-0.413-0.618-0.277-1.053l-1.495-0.512c-0.152,0.447-0.217,0.98-0.082,1.491	c0.122,0.513,0.424,0.964,0.797,1.291c0.734,0.638,1.848,0.948,2.892,0.406c0.507-0.276,0.859-0.763,1.029-1.23	c0.166-0.448,0.246-0.983,0.12-1.527C55.457,66.24,55.153,65.805,54.851,65.492z"/><path fill="#fbcd59" d="M35.128,60.302c-0.235-0.763-0.856-1.327-1.555-1.545c-0.349-0.12-0.722-0.137-1.074-0.097	c-0.334,0.026-0.745,0.199-0.939,0.301c-0.127,0.065-0.252,0.131-0.377,0.199l-0.025-0.689l-3.224,0.135l0.059,1.398l1.221-0.051	l0.198,5.484l-0.867,0.022l0.058,1.399l4.528-0.264l-0.052-1.251l-1.668,0.042l-0.164-4.484c0.256-0.179,0.617-0.362,0.971-0.51	c0.244-0.101,0.295-0.11,0.448-0.118c0.129,0,0.255,0.01,0.362,0.063c0.221,0.091,0.373,0.281,0.402,0.46	c0.023,0.089,0.012,0.178-0.019,0.275c-0.008,0.048-0.041,0.099-0.063,0.152l-0.16,0.304l1.676,0.825L35.02,62	c0.069-0.173,0.136-0.344,0.168-0.537C35.264,61.091,35.254,60.677,35.128,60.302z"/><path fill="#fbcd59" d="M45.955,44.365c0.792,0,1.434-0.642,1.434-1.434c0-0.792-0.642-1.434-1.434-1.434	s-1.434,0.642-1.434,1.434C44.521,43.724,45.163,44.365,45.955,44.365z"/><polygon fill="#fbcd59" points="47.389,51.497 47.389,46.825 47.389,46.39 47.389,45.26 43.876,45.322 43.876,46.825 45.533,46.825 45.533,51.497 44.23,51.497 44.23,53.152 48.55,53.152 48.55,51.497"/><path fill="#fbcd59" d="M58.321,56.424c0.792,0,1.434-0.642,1.434-1.434c0-0.792-0.642-1.434-1.434-1.434	s-1.434,0.642-1.434,1.434C56.887,55.782,57.529,56.424,58.321,56.424z"/><polygon fill="#fbcd59" points="59.755,63.555 59.755,58.884 59.755,58.449 59.755,57.319 56.243,57.381 56.243,58.884 57.9,58.884 57.9,63.555 56.597,63.555 56.597,65.211 60.917,65.211 60.917,63.555"/><path fill="#fbcd59" d="M39.93,55.3c-2.31,0-4.19,1.91-4.19,4.27c0,2.35,1.88,4.26,4.19,4.26c2.31,0,4.18-1.91,4.18-4.26	C44.11,57.21,42.24,55.3,39.93,55.3z M39.93,62.05c-1.24,0-2.25-1.11-2.25-2.48s1.01-2.48,2.25-2.48s2.24,1.11,2.24,2.48	S41.17,62.05,39.93,62.05z"/><path fill="#fbcd59" d="M29.09,55.38l-0.57,0.88l-1.19,1.83c-0.4-0.54-0.94-0.98-1.59-1.23c-0.12-0.05-0.24-0.09-0.37-0.13	c-2.08-0.58-4.29,0.8-4.93,3.09c-0.63,2.29,0.54,4.61,2.62,5.19c1.19,0.33,2.436,0.069,3.425-0.628l0.755,1.898	c-0.95,0.62-2.06,0.97-3.22,0.97c-0.52,0-1.03-0.07-1.53-0.21c-3.19-0.89-5.3-3.7-4.17-7.77c0.78-2.81,3.34-4.77,6.08-4.77	c0.52,0,1.03,0.07,1.53,0.2c0.34,0.09,0.66,0.22,0.97,0.37l0.51-0.78L29.09,55.38z"/><path fill="#fbcd59" d="M69.294,50.425c0.055-0.604,0.107-1.208,0.17-1.811l0.147-1.441c0.023-0.234,0.052-0.466,0.067-0.814	c-0.001-0.316-0.021-0.636-0.095-0.954c-0.275-1.313-1.451-2.269-2.661-2.513c-0.628-0.133-1.24-0.086-1.808,0.056	c-0.578,0.151-1.109,0.444-1.546,0.795l0.806,1.135c0.347-0.208,0.708-0.331,1.073-0.382c0.373-0.054,0.75-0.032,1.057,0.077	c0.668,0.194,1.108,0.731,1.313,1.3c0.053,0.147,0.085,0.31,0.086,0.475c0.002,0.058-0.005,0.144-0.014,0.235	c-0.569-0.458-1.324-0.744-2.16-0.744c-1.76,0-3.19,1.24-3.19,2.78c0,1.54,1.43,2.79,3.19,2.79c0.54,0,1.04-0.128,1.486-0.336	l-0.068,0.766l2.857,0.255l0.143-1.594L69.294,50.425z M66.09,50.1c-0.88,0-1.51-0.62-1.51-1.38s0.63-1.37,1.51-1.37	c0.62,0,1.24,0.29,1.51,0.73l-0.005,0.597c-0.039,0.277-0.084,0.553-0.125,0.829C67.17,49.858,66.63,50.1,66.09,50.1z"/><polygon fill="#fbcd59" points="76.145,40.151 72.974,39.544 72.673,41.116 73.979,41.366 72.114,51.472 71.25,51.32 70.973,52.896 74.719,53.557 74.996,51.981 73.986,51.803"/><path fill="#fbcd59" d="M60.719,50.83l0.136-4.652c0.039-1.346-1.004-2.477-2.349-2.547l0,0c-1.54,0-2.13,0.932-2.13,0.932	s-0.461-1.225-1.896-1.225s-1.895,0.865-1.895,0.865l0.016-1.272l-3.295-0.053v1.197h0.97v6.224h-1.115v1.642h3.206v-1.28	l0.135-4.474c0.017-0.572,0.486-1.027,1.059-1.027l0,0c0.6,0,1.08,0.498,1.059,1.098l-0.226,6.286h3.454v-1.111l-1.28,0.005	l0.147-4.87c0.019-0.628,0.534-1.128,1.163-1.128l0,0c0.663,0,1.192,0.553,1.162,1.216l-0.262,5.78h2.944V50.83H60.719z"/><path fill="#fbcd59" d="M33.872,44.362l-0.179-1.404l3.138-0.427l0.11,1.294c0,0,0.908-1.362,2.78-1.362l0,0	c1.312,0,2.417,0.979,2.574,2.282l0.522,4.324L43.711,49l0.165,1.596l-2.805,0.311l-0.602-5.317	c-0.089-0.789-0.786-1.367-1.578-1.308l0,0c-1.741,0.233-1.586,1.906-1.586,1.906l0.736,4.904l-2.917,0.468l-0.175-1.243	l1.042-0.147l-0.876-6.158L33.872,44.362z"/><path fill="#fbcd59" d="M61.262,60.96l0.088-1.218l3.089,0.198l-0.077,1.294c0,0,1.16-1.156,2.994-0.785l0,0	c1.286,0.26,2.175,1.438,2.071,2.746l-0.344,4.342l0.89,0.11l-0.154,1.597l-2.811-0.251l0.463-5.331	c0.069-0.791-0.5-1.495-1.288-1.594l0,0c-1.752-0.117-1.932,1.555-1.932,1.555l-0.249,4.953l-2.952-0.119l0.074-1.253l1.051,0.062	l0.36-6.21L61.262,60.96z"/><path fill="#fbcd59" d="M33.627,50.507l-0.873,0.054L28.5,39.85l-4.57,0.446l0.139,1.694l1.791-0.146l-1.571,9.751	l-1.294,0.159l0.225,1.836l0.01-0.001v0.001l2.64-0.31l0.7-4.47l2.84-0.24l0.895,2.142l-1.911,0.118l0.143,1.861l5.221-0.481	L33.627,50.507z M26.91,47.16l0.6-3.8l1.46,3.66L26.91,47.16z"/><path fill="#fbcd59" d="M79.131,66.438c-0.016-0.144-0.05-0.313-0.074-0.434l-0.072-0.312l-1.155-4.995	c-0.271-1.2-0.564-2.394-0.857-3.589l0.806-0.195l-0.328-1.409l-2.771,0.669l0.289,1.24c-0.709-0.297-1.51-0.392-2.319-0.214	c-2.09,0.45-3.41,2.52-2.95,4.6c0.45,2.09,2.52,3.41,4.6,2.96c0.867-0.191,1.59-0.667,2.12-1.296l0.654,2.682l0.076,0.311	l0.037,0.197c0.011,0.122,0.014,0.245-0.007,0.366c-0.037,0.242-0.149,0.476-0.311,0.665c-0.316,0.384-0.891,0.547-1.3,0.416	c-0.216-0.065-0.417-0.2-0.559-0.383c-0.285-0.413-0.246-0.675-0.082-0.788c0.181-0.124,0.349-0.022,0.441,0.107l1.074-0.738	c-0.364-0.655-1.073-1.06-1.792-0.894c-0.701,0.12-1.379,0.661-1.554,1.45c-0.152,0.818,0.094,1.374,0.413,1.906	c0.339,0.526,0.866,0.917,1.456,1.129c1.225,0.423,2.551-0.025,3.352-0.928c0.401-0.451,0.679-1.016,0.782-1.616	C79.155,67.048,79.159,66.741,79.131,66.438z M73.97,62.96c-1.26,0-2.27-0.98-2.27-2.19c0-1.2,1.01-2.18,2.27-2.18	c0.39,0,0.76,0.1,1.08,0.27h0.01L75.84,62C75.44,62.58,74.75,62.96,73.97,62.96z"/><path fill="none" stroke="#422f2d" stroke-linecap="round" stroke-linejoin="round" stroke-miterlimit="10" stroke-width=".5" d="M49.218,61.917c-0.306-0.323-0.619-0.561-0.914-0.783c-0.583-0.431-1.154-0.806-1.405-1.168c-0.124-0.179-0.166-0.299-0.161-0.458	c0.003-0.152,0.063-0.411,0.147-0.547c0.15-0.283,0.498-0.433,0.979-0.391c0.463,0.048,0.929,0.292,1.074,0.622	c0.014,0.035-0.003,0.549-0.003,0.549l1.4-0.005l-0.01-3.18l-1.4,0.005l0.002,0.698c-0.256-0.128-0.521-0.231-0.793-0.286	c-0.46-0.093-0.967-0.089-1.463,0.084c-0.498,0.163-0.965,0.53-1.252,0.979c-0.286,0.462-0.427,0.903-0.442,1.453	c-0.02,0.548,0.209,1.121,0.499,1.505c0.597,0.778,1.264,1.143,1.803,1.546c0.553,0.377,0.979,0.776,1.042,1.066	c0.037,0.143,0.032,0.336-0.041,0.546c-0.071,0.192-0.162,0.303-0.276,0.371c-0.215,0.147-0.724,0.091-1.034-0.19	c-0.314-0.276-0.413-0.618-0.277-1.053L45.2,62.77c-0.152,0.447-0.217,0.98-0.082,1.491c0.122,0.513,0.424,0.964,0.797,1.291	c0.734,0.638,1.848,0.948,2.892,0.406c0.507-0.276,0.859-0.763,1.029-1.23c0.166-0.448,0.246-0.983,0.12-1.527	C49.824,62.664,49.519,62.23,49.218,61.917z"/><path fill="none" stroke="#422f2d" stroke-linecap="round" stroke-linejoin="round" stroke-miterlimit="10" stroke-width=".5" d="M54.851,65.492c-0.306-0.323-0.619-0.561-0.914-0.783c-0.583-0.431-1.154-0.806-1.405-1.168c-0.124-0.179-0.166-0.299-0.161-0.458	c0.003-0.152,0.063-0.411,0.147-0.547c0.15-0.283,0.498-0.433,0.979-0.391c0.463,0.048,0.929,0.292,1.074,0.622	c0.014,0.035-0.003,0.549-0.003,0.549l1.4-0.005l-0.01-3.18l-1.4,0.005l0.002,0.698c-0.256-0.128-0.521-0.231-0.793-0.286	c-0.46-0.093-0.967-0.089-1.463,0.084c-0.498,0.163-0.965,0.53-1.252,0.979c-0.286,0.462-0.427,0.903-0.442,1.453	c-0.02,0.548,0.209,1.121,0.499,1.505c0.597,0.778,1.264,1.143,1.803,1.546c0.553,0.377,0.979,0.776,1.042,1.066	c0.037,0.143,0.032,0.336-0.041,0.546c-0.071,0.192-0.162,0.303-0.276,0.371c-0.215,0.147-0.724,0.091-1.034-0.19	c-0.314-0.276-0.413-0.618-0.277-1.053l-1.495-0.512c-0.152,0.447-0.217,0.98-0.082,1.491c0.122,0.513,0.424,0.964,0.797,1.291	c0.734,0.638,1.848,0.948,2.892,0.406c0.507-0.276,0.859-0.763,1.029-1.23c0.166-0.448,0.246-0.983,0.12-1.527	C55.457,66.24,55.153,65.805,54.851,65.492z"/><path fill="none" stroke="#422f2d" stroke-linecap="round" stroke-linejoin="round" stroke-miterlimit="10" stroke-width=".5" d="M35.128,60.302c-0.235-0.763-0.856-1.327-1.555-1.545c-0.349-0.12-0.722-0.137-1.074-0.097c-0.334,0.026-0.745,0.199-0.939,0.301	c-0.127,0.065-0.252,0.131-0.377,0.199l-0.025-0.689l-3.224,0.135l0.059,1.398l1.221-0.051l0.198,5.484l-0.867,0.022l0.058,1.399	l4.528-0.264l-0.052-1.251l-1.668,0.042l-0.164-4.484c0.256-0.179,0.617-0.362,0.971-0.51c0.244-0.101,0.295-0.11,0.448-0.118	c0.129,0,0.255,0.01,0.362,0.063c0.221,0.091,0.373,0.281,0.402,0.46c0.023,0.089,0.012,0.178-0.019,0.275	c-0.008,0.048-0.041,0.099-0.063,0.152l-0.16,0.304l1.676,0.825L35.02,62c0.069-0.173,0.136-0.344,0.168-0.537	C35.264,61.091,35.254,60.677,35.128,60.302z"/><path fill="none" stroke="#422f2d" stroke-linecap="round" stroke-linejoin="round" stroke-miterlimit="10" stroke-width=".5" d="M45.955,44.365c0.792,0,1.434-0.642,1.434-1.434c0-0.792-0.642-1.434-1.434-1.434s-1.434,0.642-1.434,1.434	C44.521,43.724,45.163,44.365,45.955,44.365z"/><polygon fill="none" stroke="#422f2d" stroke-linecap="round" stroke-linejoin="round" stroke-miterlimit="10" stroke-width=".5" points="47.389,51.497 47.389,46.825 47.389,46.39 47.389,45.26 43.876,45.322 43.876,46.825 45.533,46.825 45.533,51.497 44.23,51.497 44.23,53.152 48.55,53.152 48.55,51.497"/><path fill="none" stroke="#422f2d" stroke-linecap="round" stroke-linejoin="round" stroke-miterlimit="10" stroke-width=".5" d="M58.321,56.424c0.792,0,1.434-0.642,1.434-1.434c0-0.792-0.642-1.434-1.434-1.434s-1.434,0.642-1.434,1.434	C56.887,55.782,57.529,56.424,58.321,56.424z"/><polygon fill="none" stroke="#422f2d" stroke-linecap="round" stroke-linejoin="round" stroke-miterlimit="10" stroke-width=".5" points="59.755,63.555 59.755,58.884 59.755,58.449 59.755,57.319 56.243,57.381 56.243,58.884 57.9,58.884 57.9,63.555 56.597,63.555 56.597,65.211 60.917,65.211 60.917,63.555"/><path fill="none" stroke="#422f2d" stroke-linecap="round" stroke-linejoin="round" stroke-miterlimit="10" stroke-width=".5" d="M39.93,55.3c-2.31,0-4.19,1.91-4.19,4.27c0,2.35,1.88,4.26,4.19,4.26c2.31,0,4.18-1.91,4.18-4.26C44.11,57.21,42.24,55.3,39.93,55.3	z M39.93,62.05c-1.24,0-2.25-1.11-2.25-2.48s1.01-2.48,2.25-2.48s2.24,1.11,2.24,2.48S41.17,62.05,39.93,62.05z"/><path fill="none" stroke="#422f2d" stroke-linecap="round" stroke-linejoin="round" stroke-miterlimit="10" stroke-width=".5" d="M29.09,55.38l-0.57,0.88l-1.19,1.83c-0.4-0.54-0.94-0.98-1.59-1.23c-0.12-0.05-0.24-0.09-0.37-0.13c-2.08-0.58-4.29,0.8-4.93,3.09	c-0.63,2.29,0.54,4.61,2.62,5.19c1.19,0.33,2.436,0.069,3.425-0.628l0.755,1.898c-0.95,0.62-2.06,0.97-3.22,0.97	c-0.52,0-1.03-0.07-1.53-0.21c-3.19-0.89-5.3-3.7-4.17-7.77c0.78-2.81,3.34-4.77,6.08-4.77c0.52,0,1.03,0.07,1.53,0.2	c0.34,0.09,0.66,0.22,0.97,0.37l0.51-0.78L29.09,55.38z"/><path fill="none" stroke="#422f2d" stroke-linecap="round" stroke-linejoin="round" stroke-miterlimit="10" stroke-width=".5" d="M69.294,50.425c0.055-0.604,0.107-1.208,0.17-1.811l0.147-1.441c0.023-0.234,0.052-0.466,0.067-0.814	c-0.001-0.316-0.021-0.636-0.095-0.954c-0.275-1.313-1.451-2.269-2.661-2.513c-0.628-0.133-1.24-0.086-1.808,0.056	c-0.578,0.151-1.109,0.444-1.546,0.795l0.806,1.135c0.347-0.208,0.708-0.331,1.073-0.382c0.373-0.054,0.75-0.032,1.057,0.077	c0.668,0.194,1.108,0.731,1.313,1.3c0.053,0.147,0.085,0.31,0.086,0.475c0.002,0.058-0.005,0.144-0.014,0.235	c-0.569-0.458-1.324-0.744-2.16-0.744c-1.76,0-3.19,1.24-3.19,2.78c0,1.54,1.43,2.79,3.19,2.79c0.54,0,1.04-0.128,1.486-0.336	l-0.068,0.766l2.857,0.255l0.143-1.594L69.294,50.425z M66.09,50.1c-0.88,0-1.51-0.62-1.51-1.38s0.63-1.37,1.51-1.37	c0.62,0,1.24,0.29,1.51,0.73l-0.005,0.597c-0.039,0.277-0.084,0.553-0.125,0.829C67.17,49.858,66.63,50.1,66.09,50.1z"/><polygon fill="none" stroke="#422f2d" stroke-linecap="round" stroke-linejoin="round" stroke-miterlimit="10" stroke-width=".5" points="76.145,40.151 72.974,39.544 72.673,41.116 73.979,41.366 72.114,51.472 71.25,51.32 70.973,52.896 74.719,53.557 74.996,51.981 73.986,51.803"/><path fill="none" stroke="#422f2d" stroke-linecap="round" stroke-linejoin="round" stroke-miterlimit="10" stroke-width=".5" d="M60.719,50.83l0.136-4.652c0.039-1.346-1.004-2.477-2.349-2.547l0,0c-1.54,0-2.13,0.932-2.13,0.932s-0.461-1.225-1.896-1.225	s-1.895,0.865-1.895,0.865l0.016-1.272l-3.295-0.053v1.197h0.97v6.224h-1.115v1.642h3.206v-1.28l0.135-4.474	c0.017-0.572,0.486-1.027,1.059-1.027l0,0c0.6,0,1.08,0.498,1.059,1.098l-0.226,6.286h3.454v-1.111l-1.28,0.005l0.147-4.87	c0.019-0.628,0.534-1.128,1.163-1.128l0,0c0.663,0,1.192,0.553,1.162,1.216l-0.262,5.78h2.944V50.83H60.719z"/><path fill="none" stroke="#422f2d" stroke-linecap="round" stroke-linejoin="round" stroke-miterlimit="10" stroke-width=".5" d="M33.872,44.362l-0.179-1.404l3.138-0.427l0.11,1.294c0,0,0.908-1.362,2.78-1.362l0,0c1.312,0,2.417,0.979,2.574,2.282l0.522,4.324	L43.711,49l0.165,1.596l-2.805,0.311l-0.602-5.317c-0.089-0.789-0.786-1.367-1.578-1.308l0,0c-1.741,0.233-1.586,1.906-1.586,1.906	l0.736,4.904l-2.917,0.468l-0.175-1.243l1.042-0.147l-0.876-6.158L33.872,44.362z"/><path fill="none" stroke="#422f2d" stroke-linecap="round" stroke-linejoin="round" stroke-miterlimit="10" stroke-width=".5" d="M61.262,60.96l0.088-1.218l3.089,0.198l-0.077,1.294c0,0,1.16-1.156,2.994-0.785l0,0c1.286,0.26,2.175,1.438,2.071,2.746	l-0.344,4.342l0.89,0.11l-0.154,1.597l-2.811-0.251l0.463-5.331c0.069-0.791-0.5-1.495-1.288-1.594l0,0	c-1.752-0.117-1.932,1.555-1.932,1.555l-0.249,4.953l-2.952-0.119l0.074-1.253l1.051,0.062l0.36-6.21L61.262,60.96z"/><path fill="none" stroke="#422f2d" stroke-linecap="round" stroke-linejoin="round" stroke-miterlimit="10" stroke-width=".5" d="M33.627,50.507l-0.873,0.054L28.5,39.85l-4.57,0.446l0.139,1.694l1.791-0.146l-1.571,9.751l-1.294,0.159l0.225,1.836l0.01-0.001	v0.001l2.64-0.31l0.7-4.47l2.84-0.24l0.895,2.142l-1.911,0.118l0.143,1.861l5.221-0.481L33.627,50.507z M26.91,47.16l0.6-3.8	l1.46,3.66L26.91,47.16z"/><path fill="none" stroke="#422f2d" stroke-linecap="round" stroke-linejoin="round" stroke-miterlimit="10" stroke-width=".5" d="M79.131,66.438c-0.016-0.144-0.05-0.313-0.074-0.434l-0.072-0.312l-1.155-4.995c-0.271-1.2-0.564-2.394-0.857-3.589l0.806-0.195	l-0.328-1.409l-2.771,0.669l0.289,1.24c-0.709-0.297-1.51-0.392-2.319-0.214c-2.09,0.45-3.41,2.52-2.95,4.6	c0.45,2.09,2.52,3.41,4.6,2.96c0.867-0.191,1.59-0.667,2.12-1.296l0.654,2.682l0.076,0.311l0.037,0.197	c0.011,0.122,0.014,0.245-0.007,0.366c-0.037,0.242-0.149,0.476-0.311,0.665c-0.316,0.384-0.891,0.547-1.3,0.416	c-0.216-0.065-0.417-0.2-0.559-0.383c-0.285-0.413-0.246-0.675-0.082-0.788c0.181-0.124,0.349-0.022,0.441,0.107l1.074-0.738	c-0.364-0.655-1.073-1.06-1.792-0.894c-0.701,0.12-1.379,0.661-1.554,1.45c-0.152,0.818,0.094,1.374,0.413,1.906	c0.339,0.526,0.866,0.917,1.456,1.129c1.225,0.423,2.551-0.025,3.352-0.928c0.401-0.451,0.679-1.016,0.782-1.616	C79.155,67.048,79.159,66.741,79.131,66.438z M73.97,62.96c-1.26,0-2.27-0.98-2.27-2.19c0-1.2,1.01-2.18,2.27-2.18	c0.39,0,0.76,0.1,1.08,0.27h0.01L75.84,62C75.44,62.58,74.75,62.96,73.97,62.96z"/><path fill="none" stroke="#422f2d" stroke-linecap="round" stroke-linejoin="round" stroke-miterlimit="10" stroke-width="1.4" d="M80.5,52.5h-2v-3h-1l1-7h3l-3-6l-20-0.952V34.5h-2.181c-0.162-0.684-0.432-1.325-0.791-1.907l1.543-1.543l-2.121-2.121l-1.543,1.543	c-0.582-0.359-1.222-0.629-1.907-0.791V27.5h-3v2.181c-0.711,0.152-1.325,0.432-1.907,0.791l-1.543-1.543l-2.121,2.121l1.543,1.543	c-0.39,0.531-0.629,1.222-0.791,1.907H41.5v1.048l-20,0.952l-4,6h3v3h1.626l-0.626,4h-2v3.518c-2.411,1.615-4,4.362-4,7.482	c0,4.971,4.029,10,9,10c4,0,11-1,11-1v-4.51c1.254,0.944,2.809,1.51,4.5,1.51c0.858,0,1.678-0.151,2.446-0.416	C43.435,67.542,45.105,68.5,47,68.5c0.238,0,0.47-0.02,0.7-0.049c0.637,2.333,2.766,4.049,5.3,4.049	c1.566,0,2.976-0.658,3.978-1.708L71.5,72.5l0.374-1.871C72.882,71.774,74.355,72.5,76,72.5c3.038,0,5.5-2.462,5.5-5.5	c0-0.17-0.01-0.337-0.025-0.503l0.002,0.003l-0.003-0.021c-0.01-0.109-0.028-0.215-0.045-0.323L80.5,59.5h2L80.5,52.5z"/><circle cx="50" cy="35.5" r="3.5" fill="none" stroke="#422f2d" stroke-linecap="round" stroke-linejoin="round" stroke-miterlimit="10" stroke-width=".5"/><line x1="50" x2="50" y1="33" y2="32" fill="none" stroke="#422f2d" stroke-linecap="round" stroke-linejoin="round" stroke-miterlimit="10" stroke-width=".5"/><line x1="48.232" x2="47.525" y1="33.732" y2="33.025" fill="none" stroke="#422f2d" stroke-linecap="round" stroke-linejoin="round" stroke-miterlimit="10" stroke-width=".5"/><line x1="47.5" x2="46.5" y1="35.5" y2="35.5" fill="none" stroke="#422f2d" stroke-linecap="round" stroke-linejoin="round" stroke-miterlimit="10" stroke-width=".5"/><line x1="48.232" x2="47.525" y1="37.268" y2="37.975" fill="none" stroke="#422f2d" stroke-linecap="round" stroke-linejoin="round" stroke-miterlimit="10" stroke-width=".5"/><line x1="50" x2="50" y1="38" y2="39" fill="none" stroke="#422f2d" stroke-linecap="round" stroke-linejoin="round" stroke-miterlimit="10" stroke-width=".5"/><line x1="51.768" x2="52.475" y1="37.268" y2="37.975" fill="none" stroke="#422f2d" stroke-linecap="round" stroke-linejoin="round" stroke-miterlimit="10" stroke-width=".5"/><line x1="52.5" x2="53.5" y1="35.5" y2="35.5" fill="none" stroke="#422f2d" stroke-linecap="round" stroke-linejoin="round" stroke-miterlimit="10" stroke-width=".5"/><line x1="51.768" x2="52.475" y1="33.732" y2="33.025" fill="none" stroke="#422f2d" stroke-linecap="round" stroke-linejoin="round" stroke-miterlimit="10" stroke-width=".5"/><circle cx="50" cy="35.5" r=".5" fill="none" stroke="#422f2d" stroke-linecap="round" stroke-linejoin="round" stroke-miterlimit="10" stroke-width=".5"/><path fill="#fff" d="M45.428,39.496c-0.042-0.08-0.097-0.151-0.163-0.209c-0.066-0.059-0.143-0.103-0.231-0.134	c-0.088-0.031-0.179-0.041-0.274-0.029c-0.101,0.011-0.194,0.04-0.279,0.086c-0.085,0.045-0.156,0.105-0.214,0.178	c-0.057,0.074-0.1,0.157-0.125,0.252c-0.025,0.095-0.028,0.198-0.009,0.31c0.018,0.095,0.05,0.18,0.097,0.254	c0.047,0.075,0.105,0.136,0.172,0.184c0.069,0.048,0.145,0.082,0.231,0.102c0.085,0.021,0.175,0.025,0.27,0.015	c0.099-0.012,0.186-0.039,0.262-0.084c0.076-0.044,0.139-0.099,0.19-0.166s0.089-0.143,0.114-0.23	c0.024-0.087,0.034-0.179,0.029-0.275C45.494,39.663,45.471,39.577,45.428,39.496z M45.163,39.938	c-0.015,0.05-0.036,0.093-0.065,0.132c-0.028,0.039-0.062,0.071-0.103,0.097c-0.04,0.025-0.085,0.04-0.135,0.043	c-0.1,0.007-0.187-0.016-0.265-0.069c-0.076-0.054-0.123-0.135-0.14-0.242c-0.008-0.057-0.006-0.112,0.007-0.167	c0.013-0.056,0.036-0.105,0.067-0.15c0.031-0.044,0.067-0.081,0.11-0.109c0.043-0.029,0.089-0.046,0.138-0.051	c0.049-0.004,0.098,0.004,0.143,0.023c0.046,0.019,0.087,0.047,0.125,0.082c0.037,0.034,0.067,0.075,0.092,0.122	c0.025,0.046,0.038,0.093,0.042,0.142C45.184,39.839,45.179,39.888,45.163,39.938z"/><path fill="#fff" d="M44.019,40.134c0.005,0.084-0.005,0.155-0.028,0.215c-0.023,0.058-0.054,0.108-0.094,0.146	c-0.041,0.039-0.09,0.069-0.147,0.089c-0.056,0.021-0.116,0.033-0.181,0.038c-0.064,0.005-0.128-0.002-0.193-0.02	c-0.065-0.017-0.125-0.048-0.18-0.091c-0.055-0.044-0.101-0.1-0.139-0.17c-0.037-0.069-0.06-0.156-0.067-0.257l-0.058-0.687	l-0.22,0.015L42.685,39.1l0.236-0.021l-0.048-0.556l0.326-0.024l0.047,0.55l0.514-0.044l0.01,0.264l-0.502,0.043l0.063,0.712	c0.003,0.037,0.008,0.073,0.016,0.107c0.007,0.036,0.02,0.067,0.036,0.093c0.017,0.026,0.04,0.047,0.068,0.062	c0.03,0.015,0.066,0.022,0.11,0.021c0.066-0.003,0.111-0.02,0.133-0.051s0.034-0.062,0.033-0.093	c0.002-0.027-0.001-0.047-0.012-0.06c-0.01-0.014-0.023-0.021-0.036-0.021c-0.014,0-0.027,0.007-0.039,0.021	s-0.019,0.035-0.022,0.061l-0.227-0.078c-0.002-0.055,0.016-0.112,0.056-0.17c0.039-0.058,0.113-0.094,0.22-0.105	c0.099-0.012,0.181,0.015,0.246,0.08C43.979,39.957,44.013,40.038,44.019,40.134z"/><path fill="#fff" d="M41.441,40.444c-0.054,0.023-0.108,0.034-0.161,0.037c-0.037,0.001-0.075-0.005-0.113-0.015	c-0.039-0.01-0.073-0.026-0.105-0.048c-0.032-0.021-0.058-0.046-0.08-0.075c-0.022-0.029-0.035-0.062-0.037-0.099l0.913-0.095	c-0.002-0.163-0.028-0.296-0.076-0.396c-0.05-0.101-0.108-0.178-0.175-0.232c-0.068-0.053-0.139-0.088-0.214-0.104	s-0.141-0.022-0.197-0.018c-0.068,0.005-0.139,0.022-0.211,0.052c-0.073,0.03-0.138,0.073-0.197,0.128	c-0.059,0.056-0.108,0.126-0.145,0.209c-0.037,0.084-0.055,0.181-0.053,0.291c0.003,0.123,0.025,0.229,0.066,0.318	s0.095,0.163,0.161,0.22c0.066,0.058,0.142,0.1,0.228,0.126c0.086,0.027,0.172,0.038,0.261,0.034	c0.092-0.005,0.175-0.023,0.252-0.054c0.076-0.031,0.144-0.084,0.203-0.158l-0.193-0.21C41.536,40.392,41.495,40.422,41.441,40.444z M41.032,39.777c0.058-0.05,0.118-0.077,0.182-0.084c0.062-0.006,0.123,0.008,0.183,0.045c0.06,0.036,0.098,0.093,0.114,0.169	l-0.572,0.064C40.944,39.89,40.975,39.826,41.032,39.777z"/><path fill="#fff" d="M40.514,40.748l-0.493,0.04l-0.069-0.881c-0.005-0.075-0.028-0.129-0.07-0.16	c-0.041-0.032-0.083-0.045-0.127-0.04c-0.044,0.006-0.084,0.029-0.118,0.07c-0.035,0.041-0.049,0.098-0.044,0.169	c0.013,0.211,0.033,0.452,0.058,0.724l0.223-0.016l0.015,0.207l-0.594,0.053c-0.018-0.346-0.04-0.684-0.066-1.012	c-0.004-0.049-0.024-0.086-0.059-0.111s-0.074-0.035-0.115-0.032c-0.041,0.004-0.077,0.025-0.108,0.061	c-0.03,0.037-0.043,0.092-0.037,0.166c0.003,0.041,0.007,0.093,0.014,0.157c0.006,0.064,0.014,0.155,0.023,0.273	c0.01,0.119,0.022,0.274,0.037,0.467l-0.542,0.036l-0.024-0.281l0.188-0.02l-0.102-0.982l-0.198,0.021l-0.02-0.224l0.533-0.041	l0.027,0.204c0.034-0.048,0.077-0.083,0.127-0.106s0.111-0.038,0.183-0.045c0.058-0.004,0.117,0.006,0.178,0.03	s0.103,0.06,0.128,0.108c0.037-0.061,0.087-0.105,0.151-0.132c0.062-0.029,0.123-0.046,0.181-0.052	c0.128-0.013,0.237,0.019,0.329,0.096c0.091,0.078,0.143,0.188,0.156,0.333l0.05,0.666l0.162-0.011L40.514,40.748z"/><path fill="#fff" d="M38.155,40.026c-0.042-0.08-0.097-0.151-0.164-0.209c-0.066-0.059-0.143-0.103-0.231-0.135	c-0.088-0.03-0.179-0.04-0.273-0.029c-0.102,0.012-0.194,0.041-0.279,0.086c-0.085,0.046-0.156,0.106-0.215,0.179	c-0.058,0.073-0.1,0.157-0.124,0.252c-0.026,0.095-0.028,0.198-0.009,0.31c0.017,0.095,0.05,0.18,0.097,0.254	c0.047,0.075,0.105,0.136,0.172,0.183c0.068,0.049,0.144,0.083,0.23,0.103c0.085,0.021,0.176,0.025,0.27,0.015	c0.099-0.012,0.186-0.04,0.262-0.084s0.139-0.099,0.19-0.166s0.089-0.143,0.114-0.23c0.025-0.086,0.035-0.178,0.029-0.274	C38.221,40.193,38.197,40.107,38.155,40.026z M37.891,40.468c-0.016,0.049-0.037,0.093-0.065,0.132s-0.063,0.071-0.103,0.097	c-0.041,0.025-0.086,0.04-0.136,0.043c-0.099,0.007-0.187-0.016-0.264-0.069c-0.077-0.054-0.124-0.135-0.14-0.242	c-0.008-0.057-0.005-0.112,0.008-0.168c0.013-0.055,0.035-0.105,0.067-0.149c0.031-0.044,0.067-0.081,0.109-0.109	c0.043-0.029,0.089-0.046,0.139-0.051c0.049-0.004,0.097,0.004,0.143,0.023c0.046,0.019,0.087,0.047,0.124,0.081	c0.037,0.035,0.068,0.076,0.093,0.122c0.024,0.047,0.038,0.094,0.041,0.143C37.912,40.369,37.906,40.418,37.891,40.468z"/><path fill="#fff" d="M36.465,40.62l0.186,0.186c-0.078,0.104-0.163,0.182-0.257,0.234	c-0.094,0.052-0.191,0.082-0.293,0.089c-0.089,0.007-0.175-0.005-0.259-0.035c-0.085-0.03-0.16-0.073-0.225-0.13	c-0.065-0.056-0.119-0.123-0.161-0.199c-0.043-0.076-0.068-0.156-0.077-0.241c-0.009-0.094,0-0.183,0.027-0.266	c0.027-0.084,0.068-0.159,0.121-0.224c0.053-0.065,0.118-0.119,0.194-0.16s0.159-0.066,0.249-0.075	c0.058-0.004,0.117-0.005,0.176-0.002c0.06,0.003,0.116,0.019,0.171,0.048l0.075-0.169l0.29,0.126l-0.223,0.474	c-0.051-0.066-0.118-0.115-0.2-0.145c-0.083-0.031-0.161-0.042-0.235-0.032c-0.095,0.011-0.17,0.051-0.225,0.119	c-0.055,0.069-0.078,0.158-0.067,0.268c0.008,0.111,0.048,0.199,0.118,0.262c0.07,0.062,0.149,0.093,0.236,0.09	c0.066-0.002,0.137-0.024,0.212-0.064C36.372,40.733,36.429,40.682,36.465,40.62z"/><polygon fill="#fff" points="35.303,41.165 34.627,41.227 34.601,40.912 34.772,40.903 34.636,39.256 34.413,39.275 34.391,39.022 34.949,38.991 35.098,40.888 35.278,40.881"/><path fill="#fff" d="M33.973,40.989c-0.054,0.023-0.107,0.034-0.161,0.036c-0.037,0.001-0.075-0.004-0.113-0.014	c-0.039-0.01-0.073-0.026-0.105-0.048c-0.032-0.021-0.058-0.046-0.08-0.076c-0.022-0.029-0.035-0.061-0.037-0.098l0.913-0.095	c-0.002-0.163-0.028-0.296-0.076-0.397c-0.049-0.1-0.108-0.178-0.175-0.231c-0.067-0.053-0.139-0.088-0.214-0.104	s-0.141-0.022-0.197-0.018c-0.068,0.005-0.139,0.022-0.211,0.052c-0.073,0.03-0.138,0.073-0.197,0.128	c-0.059,0.056-0.108,0.125-0.145,0.209s-0.055,0.181-0.053,0.291c0.003,0.123,0.025,0.229,0.066,0.318s0.095,0.162,0.161,0.22	c0.067,0.058,0.142,0.1,0.228,0.126c0.086,0.027,0.172,0.038,0.261,0.034c0.092-0.005,0.175-0.023,0.252-0.054	c0.076-0.031,0.144-0.084,0.203-0.158L34.1,40.9C34.068,40.936,34.026,40.966,33.973,40.989z M33.564,40.321	c0.058-0.05,0.119-0.077,0.183-0.084c0.062-0.006,0.123,0.008,0.183,0.044c0.06,0.037,0.098,0.093,0.114,0.17l-0.572,0.064	C33.475,40.435,33.506,40.37,33.564,40.321z"/><polygon fill="#fff" points="32.91,39.523 32.721,39.54 32.438,41.306 32.065,41.346 31.757,40.558 31.616,41.465 30.954,41.5 30.928,41.271 31.167,41.258 30.684,39.713 30.516,39.726 30.5,39.428 30.958,39.389 31.408,40.855 31.546,39.954 31.9,39.926 32.172,40.735 32.351,39.622 32.093,39.638 32.066,39.321 32.879,39.268"/></svg>